<?xml version="1.0" standalone="no"?>
<!DOCTYPE svg PUBLIC "-//W3C//DTD SVG 20010904//EN"
 "http://www.w3.org/TR/2001/REC-SVG-20010904/DTD/svg10.dtd">
<svg version="1.0" xmlns="http://www.w3.org/2000/svg"
 width="512.000000pt" height="512.000000pt" viewBox="0 0 512.000000 512.000000"
 preserveAspectRatio="xMidYMid meet">
<metadata>
Created by potrace 1.11, written by Peter Selinger 2001-2013
</metadata>
<g transform="translate(0.000000,512.000000) scale(0.100000,-0.100000)"
fill="#000000" stroke="none">
<path d="M1933 3456 c-104 -34 -204 -123 -251 -224 -24 -50 -27 -69 -27 -162
0 -97 2 -110 31 -171 35 -74 115 -162 184 -202 91 -52 238 -54 339 -3 55 29
132 103 166 160 66 113 71 284 13 401 -34 66 -122 150 -191 181 -74 33 -195
43 -264 20z"/>
<path d="M2975 3457 c-68 -23 -119 -54 -164 -99 -95 -95 -126 -176 -119 -319
4 -84 9 -107 36 -162 38 -77 111 -148 190 -185 50 -24 69 -27 162 -27 96 0
110 3 165 29 121 59 210 185 223 316 15 142 -19 248 -110 340 -74 75 -158 113
-263 117 -48 2 -96 -2 -120 -10z"/>
<path d="M1829 2415 c-197 -32 -359 -87 -491 -166 -96 -58 -149 -106 -186
-169 -26 -44 -27 -50 -30 -236 -3 -162 -1 -193 12 -206 25 -26 256 -30 1066
-21 l745 8 3 199 c2 197 2 201 -23 253 -66 133 -299 263 -584 324 -126 27
-390 34 -512 14z"/>
<path d="M2972 2410 c7 -12 40 -49 73 -83 34 -34 75 -87 92 -117 61 -108 66
-136 72 -370 l6 -215 379 -3 c282 -2 382 1 393 10 12 10 14 46 11 207 -4 228
-8 242 -103 329 -170 156 -501 262 -818 262 -115 0 -117 0 -105 -20z"/>
<path d="M3255 320 c-16 -7 -17 -9 -3 -9 9 -1 20 4 23 9 7 11 7 11 -20 0z"/>
<path d="M3185 300 c-13 -5 -14 -9 -5 -9 8 0 24 4 35 9 13 5 14 9 5 9 -8 0
-24 -4 -35 -9z"/>
<path d="M3120 281 c0 -5 9 -7 20 -4 11 3 20 7 20 9 0 2 -9 4 -20 4 -11 0 -20
-4 -20 -9z"/>
<path d="M3032 265 c-56 -14 -112 -22 -207 -31 -33 -3 -66 -7 -73 -10 -7 -2
-11 0 -8 4 2 4 -35 5 -82 3 -48 -2 -89 -7 -92 -11 -3 -5 -26 -11 -50 -13 -25
-3 20 -3 100 0 181 5 465 44 487 67 9 9 -14 6 -75 -9z"/>
<path d="M2188 233 c7 -3 16 -2 19 1 4 3 -2 6 -13 5 -11 0 -14 -3 -6 -6z"/>
<path d="M2258 223 c6 -2 18 -2 25 0 6 3 1 5 -13 5 -14 0 -19 -2 -12 -5z"/>
<path d="M2348 213 c12 -2 30 -2 40 0 9 3 -1 5 -23 4 -22 0 -30 -2 -17 -4z"/>
</g>
</svg>
